<svg width="133" height="330" viewBox="0 0 133 330" fill="none" xmlns="http://www.w3.org/2000/svg">
<g clip-path="url(#clip0)">
<path d="M59.5463 302.748L57.926 302.698L49.5096 302.797C49.5096 302.797 47.6643 312.311 46.6741 316.275C46.6291 316.523 46.4041 317.167 46.3141 317.662C46.179 318.356 46.134 319.05 46.134 319.743C46.3141 323.36 47.5293 326.383 50.4548 328.018C53.6503 329.802 56.1257 331.437 59.5463 328.018C62.9668 324.599 63.4169 322.419 62.1117 316.473C60.8065 310.527 60.3564 302.946 59.5463 302.748Z" fill="#4B49BB"/>
<path d="M94.7871 314.59C88.9811 312.559 85.1105 303.887 85.1105 303.887L75.2088 303.243C75.2088 303.243 74.6687 312.063 74.3987 316.523C74.0386 322.469 74.9388 325.095 78.4944 324.797C83.1752 324.401 102.213 326.284 105.229 324.153C109.144 321.378 100.188 316.473 94.7871 314.59Z" fill="#4B49BB"/>
<path d="M35.3323 146.171V159.203L49.6447 302.896H59.7714C59.7714 302.896 63.2819 204.342 63.2819 200.923C63.2819 197.504 64.1821 186.802 64.1821 186.802C64.1821 186.802 76.9192 227.284 77.1442 230.653C77.3693 234.022 75.0739 303.739 75.0739 303.739L85.2006 304.185C85.2006 304.185 94.0671 257.013 94.0671 252.554C94.0671 248.095 97.0826 224.905 96.6325 220.446C96.1824 215.986 88.6662 146.518 88.6662 146.518L73.1386 146.072L35.3323 146.171Z" fill="url(#paint0_linear)"/>
<path d="M100.998 131.059L100.863 130.86C100.908 131.009 100.953 131.108 100.998 131.059ZM71.2482 118.423L65.5773 121L65.2622 129.622L71.5183 132.347C71.5183 132.297 78.3594 132.05 78.3594 132C78.4044 131.653 81.0599 131.752 82.2751 132.595L103.474 124.568L104.239 118.969C104.239 118.969 105.814 126.005 98.7028 111.833L71.2482 118.423ZM96.5874 89.982L96.1374 87.1577L95.0572 86.9595L96.5874 89.982ZM57.3859 14.9145C54.7755 16.1037 53.5153 20.3154 53.5153 20.3154C53.5153 20.3154 52.2551 19.473 52.2551 21.8514C52.2551 24.2298 53.3352 29.5811 54.1004 30.9685C55.4506 33.2974 56.6658 35.6757 57.746 38.1532C58.7811 40.6307 58.4211 45.6847 57.3409 46.428C56.2607 47.1712 36.9975 66.1983 36.9975 66.1983L21.1099 119.91V122.041L23.5403 122.982L26.0607 125.36C26.2857 125.41 29.4813 127.342 29.9313 127.689C32.4518 129.077 35.1522 130.117 37.8977 130.811C39.698 131.207 47.6643 131.009 47.6643 131.009L55.7206 130.811L54.3254 119.514L42.3984 119.365L26.1057 118.473L42.6234 76.6532L94.7421 86.91C85.4706 68.4775 75.0739 47.7658 74.1737 45.5856C73.4086 43.8019 74.2187 39.5406 74.6688 37.3109C75.0739 35.2793 75.974 32.8019 76.8292 32.0586C77.6843 31.3154 79.2146 28.0451 79.2146 26.6082C79.2146 25.1712 79.5746 19.5721 78.4944 20.7613C78.1794 21.1082 76.9192 18.9775 76.4691 16.8469C75.749 13.7748 73.8136 11.5947 71.5633 9.61267C71.5633 9.61267 60.0864 13.7748 57.5209 14.964" fill="url(#paint1_linear)"/>
<path d="M37.4475 54.6531C34.9271 56.536 32.5867 59.063 31.7316 62.3333C30.8765 65.6036 24.8004 91.072 23.9903 94.2927C22.01 102.171 20.8398 104.45 18.4994 113.716C15.6189 125.113 22.235 126.847 28.9861 128.531C36.0073 130.266 36.0523 131.009 37.7176 131.009C37.9876 131.009 46.314 132.892 46.5841 127.689C46.7641 124.419 46.224 119.216 45.0988 119.365C42.5334 119.761 34.252 117.333 33.8469 117.036C33.3069 116.64 35.6472 109.504 36.9975 105.095C37.9876 101.824 41.8133 88.2477 42.6684 85.7207C43.1185 84.3333 40.5081 98.9008 38.9328 113.171C38.8878 113.716 38.2577 119.266 38.4377 119.266C40.328 119.266 45.5039 119.365 47.1242 119.563C54.4154 120.504 55.8106 124.32 55.3605 127.392C54.5504 132.743 36.8174 130.266 36.9075 130.959C36.9075 130.959 33.8469 146.122 35.5572 147.063C37.0425 147.905 56.9358 157.022 61.1665 158.806C61.6166 159.004 62.1567 158.757 62.3367 158.212C62.3367 158.212 62.3367 158.212 62.3367 158.162L65.0371 149.64C65.0822 149.54 65.1722 149.491 65.2622 149.54C65.3072 149.54 65.3522 149.59 65.3522 149.64L67.9176 158.955C67.9626 159.203 68.1427 159.401 68.3227 159.5H69.4479L91.5466 154.248C91.5466 154.248 91.4566 144.635 91.4115 132.347C91.4115 131.108 91.2315 126.549 90.4214 127.392C89.6112 128.234 71.1582 130.91 69.1328 129.968C64.8571 127.986 65.9823 123.081 67.4675 121.049C69.1778 118.721 90.9615 117.581 91.0515 115.847C91.4115 108.315 90.8715 88.545 90.5114 90.9234C89.9713 94.6396 77.2342 114.955 77.2342 118.473C77.2342 121.991 77.0091 130.91 77.0091 130.91L97.9376 129.126C97.9376 129.126 104.959 126.45 105.589 121.991C106.219 117.531 105.454 115.549 105.184 108.91C105.004 104.698 99.6029 79.3783 98.0726 72.1936C97.8476 71.1035 97.7126 70.0135 97.6226 68.9234C97.4425 65.9504 96.3624 59.0135 90.5564 55.9909C83.3552 52.2252 77.7293 49.2522 76.289 49.2522C74.9388 49.2522 71.2482 58.1711 69.3129 60.6981C68.4577 61.8378 68.6377 62.3828 67.5126 64.0675C66.9275 64.9594 65.8473 65.1081 65.0371 64.5135C64.8571 64.3648 64.7221 64.1666 64.5871 63.9684C63.957 62.9774 63.4169 61.8873 62.9218 60.7972C62.0667 58.9144 55.4505 48.1621 55.4505 48.1621C55.4505 48.1621 39.968 52.7207 37.4475 54.6531Z" fill="url(#paint2_linear)"/>
<path d="M71.5184 9.6621C71.5184 9.6621 57.386 15.4594 56.3958 16.3017C55.4057 17.1441 53.5154 20.3153 53.5154 20.3153C53.5154 20.3153 52.5252 19.7207 52.3002 21.3558C52.3002 21.3558 50.8599 18.0855 50.6799 16.2522C50.4999 14.4189 50.6799 9.71165 53.3803 6.59003C56.0808 3.46841 61.5267 -0.644206 64.9023 -0.0991606C68.2778 0.445884 69.7181 0.89183 71.8334 3.22066C73.9488 5.54949 75.7491 6.24318 76.3792 6.59003C77.0093 6.93688 79.4397 8.86931 79.8448 12.4864C80.2498 16.1035 79.1246 23.3378 79.1246 23.3378C79.1246 23.3378 79.4397 20.5135 78.4045 21.4053C77.6844 21.9999 76.6492 19.4234 76.3342 17.8873C75.9291 16.4008 72.2835 10.0585 71.5184 9.6621Z" fill="url(#paint3_linear)"/>
<g opacity="0.07">
<path d="M76.244 49.3018C76.154 49.0045 77.7743 50.3424 75.8839 48.8559C73.2285 46.7252 74.4887 38.0045 74.4887 38.0045C73.4985 40.2838 71.7883 42.0676 69.6729 42.9595C66.2973 44.3469 65.2622 43.3063 70.483 46.6261C75.6139 49.8964 72.9585 51.036 72.5984 55.3469" fill="white"/>
</g>
<g opacity="0.07">
<path d="M86.5959 80.1215L93.617 109.405C93.617 109.405 93.572 114.608 92.1768 115.401C90.7816 116.194 86.3708 116.689 85.3357 117.185C84.3005 117.68 73.5437 120.158 76.3342 115.995C76.9643 115.054 91.5467 109.455 85.0206 103.558C78.4945 97.6621 79.6647 89.4864 82.8152 83.8378C85.9658 78.1891 85.2907 73.3828 85.2907 73.3828L86.5959 80.1215Z" fill="black"/>
</g>
<g opacity="0.07">
<path d="M56.8458 157.32C56.8458 157.32 50.7698 192.797 53.9203 206.968C58.6911 228.473 51.805 257.558 51.805 271.531C51.805 280.599 55.0455 305.671 55.2705 315.878C55.3155 318.95 57.3409 324.896 55.8556 326.284C55.2255 326.878 51.3549 325.491 49.2395 324.401C48.1143 323.806 47.4842 322.518 47.6193 321.23L48.8795 315.185L50.6798 307.158L38.0777 177.338C38.0777 177.338 34.027 148.45 36.3224 148.351C38.6178 148.252 56.8908 157.32 56.8458 157.32Z" fill="black"/>
</g>
<path d="M51.0848 109.604L74.8938 112.874C75.3888 113.022 75.7039 113.518 75.6589 114.113L74.9838 137.797C74.9388 138.54 74.5337 139.531 73.9036 139.333L50.2297 134.329C49.7796 134.18 49.4645 133.734 49.4645 133.189L49.3745 130.613L51.9849 129.869C52.6601 129.671 53.2902 129.275 53.8303 128.829C53.9653 128.73 54.0553 128.631 54.1453 128.482L54.6854 127.59C54.8654 127.342 54.9104 126.995 54.8654 126.649C54.7754 126.104 54.6404 125.36 54.5504 124.964C54.5054 124.815 54.4604 124.667 54.4154 124.567L53.8303 123.18C53.5602 122.536 53.1101 122.04 52.525 121.743L52.165 121.545L49.5995 120.009L49.8246 110.743C49.8246 110.099 50.3197 109.604 50.9048 109.604C50.9948 109.604 51.0398 109.604 51.0848 109.604Z" fill="white"/>
</g>
<defs>
<linearGradient id="paint0_linear" x1="35.3233" y1="225.205" x2="96.6361" y2="225.205" gradientUnits="userSpaceOnUse">
<stop stop-color="#29D426"/>
<stop offset="1" stop-color="#29D426"/>
</linearGradient>
<linearGradient id="paint1_linear" x1="21.1279" y1="71.121" x2="104.385" y2="71.121" gradientUnits="userSpaceOnUse">
<stop stop-color="#F87B58"/>
<stop offset="0.41" stop-color="#F89453"/>
<stop offset="0.71" stop-color="#F8C548"/>
<stop offset="1" stop-color="#F89C51"/>
</linearGradient>
<linearGradient id="paint2_linear" x1="17.7977" y1="103.89" x2="105.827" y2="103.89" gradientUnits="userSpaceOnUse">
<stop stop-color="#08018C"/>
<stop offset="1" stop-color="#2B758A"/>
</linearGradient>
<linearGradient id="paint3_linear" x1="50.6023" y1="11.6008" x2="79.9003" y2="11.6008" gradientUnits="userSpaceOnUse">
<stop stop-color="#4B45BD"/>
<stop offset="1" stop-color="#58CAEA"/>
</linearGradient>
<clipPath id="clip0">
<rect width="133" height="330" fill="white"/>
</clipPath>
</defs>
</svg>
